<?xml version="1.0" encoding="UTF-8"?>
<svg width="78px" height="78px" viewBox="0 0 78 78" version="1.1" xmlns="http://www.w3.org/2000/svg" xmlns:xlink="http://www.w3.org/1999/xlink">
    <!-- Generator: Sketch 46.1 (44463) - http://www.bohemiancoding.com/sketch -->
    <title>computer</title>
    <desc>Created with Sketch.</desc>
    <defs></defs>
    <g id="GUI" stroke="none" stroke-width="1" fill="none" fill-rule="evenodd">
        <g id="01-home" transform="translate(-320.000000, -987.000000)" fill-rule="nonzero" fill="#333333">
            <g id="computer" transform="translate(320.000000, 987.000000)">
                <path d="M71.5,0 L6.5,0 C2.9159,0 0,2.9159 0,6.5 L0,55.9 C0,59.4841 2.9159,62.4 6.5,62.4 L30.8347,62.4 L28.8847,70.2 L27.3,70.2 C23.7159,70.2 20.8,73.1159 20.8,76.7 C20.8,77.4176 21.3824,78 22.1,78 L55.9,78 C56.6176,78 57.2,77.4176 57.2,76.7 C57.2,73.1159 54.2841,70.2 50.7,70.2 L49.1153,70.2 L47.1653,62.4 L71.5,62.4 C75.0841,62.4 78,59.4841 78,55.9 L78,6.5 C78,2.9159 75.0841,0 71.5,0 Z M48.1,72.8 L50.7,72.8 C52.3952,72.8 53.8408,73.8868 54.3777,75.4 L23.6223,75.4 C24.1592,73.8868 25.6048,72.8 27.3,72.8 L29.9,72.8 L48.1,72.8 Z M31.5653,70.2 L33.5153,62.4 L44.4847,62.4 L46.4347,70.2 L31.5653,70.2 Z M75.4,55.9 C75.4,58.0502 73.6502,59.8 71.5,59.8 L45.5,59.8 L32.5,59.8 L6.5,59.8 C4.3498,59.8 2.6,58.0502 2.6,55.9 L2.6,52 L75.4,52 L75.4,55.9 Z M75.4,49.4 L2.6,49.4 L2.6,13 L75.4,13 L75.4,49.4 Z M75.4,10.4 L2.6,10.4 L2.6,6.5 C2.6,4.3498 4.3498,2.6 6.5,2.6 L71.5,2.6 C73.6502,2.6 75.4,4.3498 75.4,6.5 L75.4,10.4 Z" id="Shape"></path>
                <rect id="Rectangle-path" x="17" y="5" width="3" height="3"></rect>
                <rect id="Rectangle-path" x="11" y="5" width="3" height="3"></rect>
                <rect id="Rectangle-path" x="7" y="5" width="3" height="3"></rect>
                <path d="M46.75,15 L29.25,15 C28.56,15 28,15.5786667 28,16.2916667 L28,44.7083333 C28,45.4213333 28.56,46 29.25,46 L46.75,46 C47.44,46 48,45.4213333 48,44.7083333 L48,16.2916667 C48,15.5786667 47.44,15 46.75,15 Z M45.5,43.4166667 L30.5,43.4166667 L30.5,17.5833333 L45.5,17.5833333 L45.5,43.4166667 Z" id="Shape"></path>
                <rect id="Rectangle-path" x="34" y="34" width="11" height="3"></rect>
                <path d="M70.75,15 L53.25,15 C52.56,15 52,15.5786667 52,16.2916667 L52,44.7083333 C52,45.4213333 52.56,46 53.25,46 L70.75,46 C71.44,46 72,45.4213333 72,44.7083333 L72,16.2916667 C72,15.5786667 71.44,15 70.75,15 Z M69.5,43.4166667 L54.5,43.4166667 L54.5,17.5833333 L69.5,17.5833333 L69.5,43.4166667 Z" id="Shape"></path>
                <path d="M63.5,20 C60.46675,20 58,22.46675 58,25.5 C58,28.53325 60.46675,31 63.5,31 C66.53325,31 69,28.53325 69,25.5 C69,22.46675 66.53325,20 63.5,20 Z M63.5,28.25 C61.983375,28.25 60.75,27.016625 60.75,25.5 C60.75,23.983375 61.983375,22.75 63.5,22.75 C65.016625,22.75 66.25,23.983375 66.25,25.5 C66.25,27.016625 65.016625,28.25 63.5,28.25 Z" id="Shape"></path>
                <rect id="Rectangle-path" x="58" y="34" width="11" height="3"></rect>
                <rect id="Rectangle-path" x="34" y="39" width="11" height="3"></rect>
                <rect id="Rectangle-path" x="58" y="39" width="11" height="3"></rect>
                <path d="M23.75,15 L6.25,15 C5.56,15 5,15.5786667 5,16.2916667 L5,44.7083333 C5,45.4213333 5.56,46 6.25,46 L23.75,46 C24.44,46 25,45.4213333 25,44.7083333 L25,16.2916667 C25,15.5786667 24.44,15 23.75,15 Z M22.5,43.4166667 L7.5,43.4166667 L7.5,17.5833333 L22.5,17.5833333 L22.5,43.4166667 Z" id="Shape"></path>
                <rect id="Rectangle-path" x="11" y="34" width="11" height="3"></rect>
                <rect id="Rectangle-path" x="11" y="39" width="11" height="3"></rect>
                <path d="M21.8550587,28.9992458 L17.7299653,20.7030985 C17.2638298,19.7656338 15.7361702,19.7656338 15.2700347,20.7030985 L11.1449413,28.9992458 C10.9318115,29.4278801 10.955187,29.9367105 11.2054427,30.3446044 C11.4556984,30.7511156 11.8970834,31 12.3742192,31 L20.6244058,31 C21.1015416,31 21.5429266,30.7511156 21.7945573,30.3446044 C22.044813,29.9367105 22.0681885,29.4278801 21.8550587,28.9992458 Z M14.5990195,28.2346176 L16.4993125,24.412859 L18.3996055,28.2346176 L14.5990195,28.2346176 Z" id="Shape"></path>
                <path d="M44.5968064,24.5280772 L40.4720642,20.4032061 C39.9344728,19.865598 39.0655272,19.865598 38.5279358,20.4032061 L34.4031936,24.5280772 C33.8656021,25.0656854 33.8656021,25.9346583 34.4031936,26.4722665 L38.5279358,30.5971376 C38.796044,30.8652542 39.148022,31 39.5,31 C39.851978,31 40.203956,30.8652542 40.4720642,30.5971376 L44.5968064,26.4722665 C45.1343979,25.9346583 45.1343979,25.0656854 44.5968064,24.5280772 Z M39.5,27.6808537 L37.3193863,25.5001719 L39.5,23.31949 L41.6806137,25.5001719 L39.5,27.6808537 Z" id="Shape"></path>
                <rect id="Rectangle-path" x="38" y="54" width="3" height="3"></rect>
            </g>
        </g>
    </g>
</svg>