<?xml version="1.0" encoding="UTF-8"?>
<svg width="176px" height="153px" viewBox="0 0 176 153" version="1.1" xmlns="http://www.w3.org/2000/svg" xmlns:xlink="http://www.w3.org/1999/xlink">
    <!-- Generator: Sketch 46.1 (44463) - http://www.bohemiancoding.com/sketch -->
    <title>Group 12</title>
    <desc>Created with Sketch.</desc>
    <defs></defs>
    <g id="GUI" stroke="none" stroke-width="1" fill="none" fill-rule="evenodd">
        <g id="01-home" transform="translate(-896.000000, -1438.000000)">
            <g id="Group-12" transform="translate(896.000000, 1441.000000)">
                <g id="man-copy" transform="translate(0.000000, 16.000000)" fill-rule="nonzero" fill="#333333">
                    <path d="M85.7614275,93.0157305 C85.7609062,93.0154688 85.7603849,93.0149454 85.759603,93.0146837 C83.680944,91.6608073 82.0083729,91.0182852 81.6121897,90.8753862 L69.5494517,85.8278587 L61.0448044,80.1925086 C60.9629613,80.1380709 60.8777297,80.0927933 60.7914556,80.0511799 L60.7914556,76.3999273 C67.2132736,73.1805124 71.8655599,66.9209606 72.8695718,59.5095801 C78.0473222,59.0887347 82.1332228,54.7261278 82.1332228,49.4205446 C82.1332228,46.7952336 81.13286,44.4004977 79.4954763,42.5996039 L79.4954763,29.6423814 C79.4959976,13.2971965 66.2533112,0 49.9756524,0 L47.6905611,0 C31.4142055,0 18.172301,13.2971965 18.172301,29.6415963 L18.172301,42.4540877 C16.454638,44.2706847 15.3971936,46.7229989 15.3971936,49.4197595 C15.3971936,54.7253427 19.4830942,59.0879496 24.6608447,59.508795 C25.6651171,66.9204372 30.3176641,73.179989 36.7397427,76.3991422 L36.7397427,79.8138001 L27.8748814,85.6873152 C27.7547232,85.7140106 27.6350863,85.7496045 27.5175345,85.7988078 L15.3885923,90.8740776 C14.782067,91.0920902 11.2177208,92.4674276 7.67891797,95.8231985 C4.17582379,99.1449459 0,105.121579 0,114.732452 L0,131.871171 C0,133.046293 0.948233378,133.999215 2.11879855,133.999215 L27.1471553,133.999215 C28.3174598,133.999215 29.2659539,133.047078 29.2659539,131.871695 C29.2659539,130.696573 28.3177205,129.744175 27.1471553,129.744175 L20.6202966,129.744175 L20.6202966,113.953312 C20.6202966,112.778191 19.6720632,111.825792 18.501498,111.825792 C17.3309329,111.825792 16.3826995,112.777929 16.3826995,113.953312 L16.3826995,129.744175 L4.23785775,129.744175 L4.23785775,114.732976 C4.23785775,99.4061422 16.3167558,95.053219 16.8234534,94.8778667 C16.8708911,94.8616401 16.9175469,94.8443666 16.9636814,94.8249993 L27.0671367,90.5971781 L37.9882413,129.744437 L33.7782728,129.744437 C32.6079683,129.744437 31.6594742,130.696573 31.6594742,131.871957 C31.6594742,133.04734 32.6077076,133.999477 33.7782728,133.999477 L40.7740353,133.999477 C40.7763811,133.999477 40.7784663,134 40.7810727,134 C40.7839399,134 40.786807,133.999477 40.7891528,133.999477 L56.7493437,133.999477 L56.7550779,133.999477 L56.7785361,133.999477 C56.7814032,133.999477 56.7842704,134 56.7866162,134 C56.788962,134 56.7910472,133.999477 56.7936537,133.999477 L94.8812014,133.999477 C96.051506,133.999477 97,133.042629 97,131.867769 L97,114.732714 C96.9997394,102.210731 89.9594063,95.751749 85.7614275,93.0157305 Z M66.12794,88.6580963 L59.746001,101.829144 L51.8296337,95.9786601 L60.1990052,87.2552783 C60.6637386,86.7710968 60.8527076,86.1230786 60.772689,85.5046348 C60.7838969,85.4159118 60.7917163,85.3258802 60.7917163,85.2342783 L60.7917163,85.1227856 L66.12794,88.6580963 Z M53.2548509,102.314372 L51.5900992,106.766226 L45.8837569,106.766226 L45.8837569,106.766487 L44.0104877,102.276685 L48.6069955,98.8798237 L53.2548509,102.314372 Z M40.9452803,85.5910023 C40.9648288,85.4747987 40.9776005,85.355978 40.9776005,85.2337548 L40.9776005,80.981332 C40.9776005,80.9802851 40.9776005,80.9792382 40.9776005,80.9781913 L40.9776005,78.0037461 C42.7721543,78.4769355 44.6540248,78.7308036 46.5945409,78.7308036 L50.9382213,78.7308036 C52.8784767,78.7308036 54.7600866,78.4769355 56.5546405,78.0040078 L56.5546405,84.920738 L48.6666837,93.1424029 L40.9452803,85.5910023 Z M77.8964076,49.4200212 C77.896147,52.3039113 75.8125358,54.7036199 73.0786106,55.1938211 L73.0786106,43.6454361 C75.8125358,44.1353755 77.8964076,46.5356076 77.8964076,49.4200212 Z M24.4525878,55.1938211 C21.7186626,54.7036199 19.6347907,52.3041731 19.6347907,49.4200212 C19.6347907,46.5353458 21.7184019,44.1353755 24.4525878,43.6451744 L24.4525878,55.1938211 Z M26.579727,37.2484814 C26.5765993,37.2484814 26.5734715,37.2484814 26.5706044,37.2484814 C26.4976233,37.2484814 26.4256847,37.2521455 26.3545281,37.2594737 C26.3321125,37.2618291 26.3107395,37.2665401 26.2883238,37.2696807 C26.2401042,37.2762237 26.1916238,37.2822433 26.1444467,37.2919269 C26.1139511,37.2982082 26.0847586,37.3076301 26.0547842,37.3149583 C26.0169904,37.3246419 25.9786753,37.3324935 25.9416635,37.3442709 C25.9072581,37.3550014 25.8741559,37.3688725 25.8405325,37.3811734 C25.8095155,37.3924273 25.7777166,37.4023727 25.7474815,37.4151969 C25.7089058,37.4316853 25.6721546,37.4510525 25.6343608,37.4696346 C25.6106419,37.4816738 25.5858805,37.4918808 25.5624222,37.5044434 C25.5259317,37.5243341 25.4912656,37.5473654 25.4558177,37.5690882 C25.4331414,37.583221 25.4096832,37.5957836 25.3877888,37.6107016 C25.3541654,37.6334712 25.3228878,37.658858 25.2905675,37.683198 C25.2689338,37.699948 25.2459969,37.7151278 25.2246239,37.732663 C25.1954314,37.7564795 25.1688454,37.7829132 25.1412169,37.8083 C25.1188012,37.8287142 25.095343,37.8483432 25.07397,37.8695425 C25.0484266,37.895191 25.0249684,37.9229333 25.0009888,37.9498904 C24.9798764,37.9734452 24.9574608,37.9959531 24.937391,38.020293 C24.9149754,38.0472502 24.8954269,38.0763011 24.8743145,38.1043051 C24.8545053,38.1310005 24.8336535,38.1563873 24.814887,38.1841296 C24.7966417,38.2113485 24.7807422,38.2403994 24.7635395,38.2684034 C24.7452942,38.2987629 24.7254851,38.3280755 24.708543,38.3592202 C24.6936862,38.3869624 24.6811751,38.4162751 24.6673608,38.4445408 C24.6512007,38.4780409 24.6337374,38.5107559 24.6194018,38.5450412 C24.607412,38.5727835 24.5985501,38.6020961 24.5881242,38.6303618 C24.5745705,38.6670026 24.5599743,38.7025965 24.5479846,38.7400224 C24.5388619,38.7685499 24.5326064,38.7986477 24.5250476,38.8279603 C24.5148824,38.8661714 24.5036746,38.9043824 24.4953339,38.9433787 C24.4888177,38.9742616 24.4856899,39.0064532 24.4807377,39.0375978 C24.4744821,39.0760706 24.467184,39.1145434 24.4630137,39.1538014 C24.4596253,39.1867781 24.4593646,39.2205399 24.4575401,39.2537783 C24.4557156,39.2841378 24.4531091,39.3142356 24.4523271,39.3451185 C23.7470167,39.4170915 23.0638612,39.5639163 22.4085949,39.7748624 L22.4085949,29.6413345 C22.4085949,15.643776 33.7496016,4.25530178 47.6895185,4.25530178 L49.9746098,4.25530178 C63.9158299,4.25530178 75.2573579,15.643776 75.2573579,29.6421197 L75.2573579,39.8224954 C74.5603881,39.5866859 73.8310981,39.423111 73.0760041,39.3459037 C73.0760041,39.3370052 73.0749615,39.3283685 73.0747009,39.31947 C73.0736583,39.2726222 73.0718337,39.2257743 73.0676634,39.1797116 C73.0650569,39.1517076 73.0606259,39.124227 73.0569769,39.096223 C73.0515033,39.0556565 73.0462903,39.0150899 73.0387316,38.9747851 C73.0322154,38.9410232 73.0241354,38.9080465 73.0157947,38.8748081 C73.0079753,38.8418314 73.0001559,38.8091164 72.9907726,38.7766632 C72.9798254,38.7389755 72.966793,38.7020731 72.9537607,38.6651706 C72.9441168,38.6382134 72.9349941,38.6112563 72.9243076,38.5848226 C72.9086688,38.5460881 72.8912055,38.507877 72.8734815,38.4701893 C72.8622736,38.4463728 72.8513265,38.4225563 72.8393367,38.3992633 C72.8200489,38.3623608 72.7994577,38.3267669 72.7783453,38.2909113 C72.7645311,38.2673565 72.7507168,38.24354 72.7358599,38.2205087 C72.7147475,38.1877937 72.6923319,38.1563873 72.6693949,38.124981 C72.651671,38.1003793 72.6336863,38.0755159 72.6149198,38.0516994 C72.5927648,38.0242188 72.5700885,37.9977851 72.5468909,37.9710897 C72.5242146,37.9451795 72.5020596,37.9197927 72.4783408,37.895191 C72.4561858,37.8721597 72.4332489,37.8506986 72.4103119,37.8287142 C72.3834653,37.8030656 72.356358,37.7779405 72.3282082,37.7538623 C72.3050106,37.7342333 72.2810311,37.7156512 72.2570516,37.6968074 C72.2270772,37.6735143 72.1973634,37.6502213 72.1663465,37.6287603 C72.1402818,37.6107016 72.1134351,37.5939515 72.0865885,37.5769398 C72.0560928,37.5575725 72.0255971,37.5384669 71.9940589,37.5204083 C71.9630419,37.5028731 71.930461,37.4869082 71.8986621,37.4709432 C71.8697303,37.4568104 71.8415804,37.4418924 71.8118667,37.4290681 C71.7738122,37.4120563 71.7344546,37.3976617 71.6948362,37.3827437 C71.6692928,37.3733218 71.6445314,37.3631147 71.6184667,37.3547397 C71.574678,37.3403451 71.5301074,37.3285677 71.4850155,37.317052 C71.4659883,37.3123411 71.447743,37.3055363 71.4284551,37.3010871 C63.1367563,35.4072828 60.6348068,24.9199098 60.6113486,24.8183626 C60.4275926,24.0031055 59.785098,23.371314 58.9695339,23.204075 C58.1539698,23.0357892 57.3162507,23.3637241 56.828059,24.0415783 C47.4043708,37.1225942 26.9162222,37.2484814 26.5815516,37.2484814 C26.5812909,37.2484814 26.5802483,37.2484814 26.579727,37.2484814 Z M28.6901849,56.4990176 L28.6901849,41.4294548 C34.1072092,41.0952387 48.5001303,39.2851847 57.7580471,29.5544436 C59.3550306,33.3268724 62.6621183,38.8355501 68.8410135,40.9761562 L68.8410135,56.4990176 C68.8410135,66.411654 60.8097009,74.476287 50.9382213,74.476287 L46.5945409,74.476287 C36.7217581,74.4760253 28.6901849,66.4113922 28.6901849,56.4990176 Z M36.7400034,84.9121012 L36.7400034,85.2340165 C36.7400034,85.4593573 36.775712,85.676323 36.8400918,85.8799409 C36.6073341,86.6219165 36.7874411,87.4646542 37.3801521,88.0446252 L45.4461307,95.9333826 L37.4679901,101.829406 L31.0863117,88.658358 L36.7400034,84.9121012 Z M40.224331,121.986277 L36.0690983,107.091282 C36.1022005,107.101227 36.13426,107.113528 36.1678835,107.121641 C36.3357401,107.162993 36.5056818,107.183407 36.675363,107.183407 C37.1228937,107.183407 37.5639082,107.041031 37.9311597,106.769366 L40.4990528,104.871898 L42.2860479,109.155465 L40.224331,121.986277 Z M43.2699899,129.74496 L46.2783763,111.021527 L51.2533434,111.021527 L54.2614691,129.74496 L43.2699899,129.74496 Z M55.238895,109.113067 L56.8012124,104.935496 L59.2830921,106.769628 C59.6506042,107.041293 60.0913581,107.183669 60.5388888,107.183669 C60.7083093,107.183669 60.8785117,107.163255 61.0463683,107.121903 C61.2223049,107.078196 61.3888583,107.01041 61.5449858,106.925613 L57.3206817,122.067934 L55.238895,109.113067 Z M92.7624029,129.74496 L92.7624029,129.74496 L80.6165186,129.74496 L80.6165186,113.954097 C80.6165186,112.778976 79.6682852,111.826577 78.49772,111.826577 C77.3274155,111.826577 76.3789215,112.778714 76.3789215,113.954097 L76.3789215,129.74496 L59.5791869,129.74496 L70.4406034,90.8099563 L80.0363186,94.825261 C80.0775008,94.8425345 80.1270237,94.8613784 80.1692485,94.875773 C80.1833234,94.8810073 81.5999393,95.3769663 83.4533993,96.5842796 C83.4536599,96.5845413 83.4539206,96.5845413 83.4541812,96.5848031 C87.7006403,99.3527514 92.7624029,104.748104 92.7624029,114.733499 L92.7624029,129.74496 L92.7624029,129.74496 Z" id="Shape"></path>
                    <path d="M51.8598743,59 C53.0419587,59 54,57.9896783 54,56.742467 C54,55.4955334 53.042222,54.484934 51.8598743,54.484934 L50.2802514,54.484934 L50.2802514,49.257533 C50.2802514,48.0108771 49.3224734,47 48.1401257,47 C46.9580413,47 46,48.0108771 46,49.257533 L46,56.742467 C46,57.9894006 46.957778,59 48.1401257,59 L51.8598743,59 Z" id="Shape"></path>
                </g>
                <g id="Group-4" transform="translate(86.000000, 0.000000)">
                    <circle id="Oval-4-Copy-2" stroke="#333333" stroke-width="5" cx="47" cy="40" r="40"></circle>
                    <polyline id="Path-3-Copy-2" stroke="#333333" stroke-width="5" points="9.5 56 0 74 19.5 69.5"></polyline>
                    <g id="002-draw" transform="translate(26.000000, 15.000000)">
                        <path d="M20.6692212,37.8143748 L16.3363889,39.0649055 L32.4790425,39.0649055 C33.2086471,39.0649055 33.7997931,39.6562715 33.7997931,40.385656 C33.7997931,41.1150405 33.2086471,41.7064066 32.4790425,41.7064066 L7.41669995,41.7064066 C7.34592973,41.7064066 7.27714064,41.6992525 7.20945217,41.6884664 C7.13868195,41.700023 7.06780167,41.7064066 6.99725158,41.7064066 C6.66728407,41.7064066 6.34436055,41.5826963 6.0964997,41.3517851 C5.75684668,41.0351351 5.6083723,40.563407 5.70544747,40.109399 L8.77993465,25.7354505 C8.83320493,25.4862689 8.95746554,25.2578891 9.13763793,25.0777167 L25.2153547,9 L3,9 L3,44 L38,44 L38,20.7162682 L21.2369238,37.4793444 C21.078984,37.6371741 20.8837331,37.7524096 20.6692212,37.8143748 Z" id="Shape"></path>
                        <polygon id="Shape" points="17 36.2813147 10.0435943 29 8 39"></polygon>
                        <path d="M35.3760796,3 C34.8374592,3 34.3990779,3.17494369 33.9968088,3.55052592 C33.9809413,3.56550548 33.9647454,3.57982899 33.9483308,3.59371515 L33,4.54125391 L41.4659258,13 L42.3929174,12.0738918 C42.3974041,12.0692996 42.4021097,12.064926 42.4065963,12.060443 L42.4160074,12.0511492 C42.4294675,12.0352949 42.4433652,12.0196593 42.4577007,12.0043517 C44.2285164,10.110805 41.1791066,6.77976776 40.2024332,5.80401933 C38.4191424,4.02188983 36.6599264,3 35.3760796,3 Z" id="Shape"></path>
                        <path d="M18.3962679,28.6037845 C18.6605593,28.8679658 19.0067088,29 19.3528583,29 C19.6992333,29 20.0453828,28.867853 20.3096741,28.6037845 L34.6037321,14.3096971 C35.1320893,13.7812219 35.1320893,12.9245215 34.6037321,12.3962718 C34.0754877,11.8679094 33.2185703,11.8679094 32.6902131,12.3962718 L18.3962679,26.6902465 C17.8679107,27.2187217 17.8679107,28.0753093 18.3962679,28.6037845 Z" id="Shape" fill="#333333" fill-rule="nonzero"></path>
                        <path d="M45.6682718,8.49175247 C45.1587531,6.95143145 44.0305565,5.26953681 42.4049333,3.62794901 C40.7666683,1.97292559 38.2719501,0 35.6912677,0 C34.5336103,0 33.4669737,0.411174216 32.5984283,1.19043985 C32.5531378,1.2255279 32.5099358,1.26383606 32.4691524,1.30503121 L27.4646557,6.3599313 L1.31914245,6.3599313 C0.590646031,6.3599313 0,6.9565392 0,7.69238893 L0,45.6675424 C0,46.4033921 0.590646031,47 1.31914245,47 L38.9148121,47 C39.6433086,47 40.2339546,46.4033921 40.2339546,45.6675424 L40.2339546,18.4459882 C40.2339546,18.3629317 40.2253802,18.2820959 40.2109795,18.2032589 L44.5919615,13.777945 C44.6007558,13.769173 44.6095501,13.760512 44.6181245,13.751629 C44.6183444,13.7515179 44.6185642,13.7512958 44.6187841,13.7510738 L44.7046383,13.6642419 C44.7452019,13.6232689 44.7823577,13.5805192 44.8164356,13.5357708 C46.0160857,12.176553 46.3109141,10.435253 45.6682718,8.49175247 Z M17.688491,36.0781779 L8.38117154,38.7915058 L10.4945477,28.8116203 L17.688491,36.0781779 Z M20.1015323,34.7467196 L11.5972408,26.1565874 L31.4387922,6.11442598 L39.9431936,14.7046693 L20.1015323,34.7467196 Z M37.5956697,44.3350847 L2.6382849,44.3350847 L2.6382849,9.02484655 L24.8265907,9.02484655 L8.76855971,25.2450753 C8.58860669,25.4268448 8.46449737,25.6572489 8.41129196,25.9086392 L5.3405482,40.4098866 C5.2434813,40.867919 5.39188483,41.3438284 5.73112429,41.6632851 C5.97868336,41.8962431 6.30121369,42.02105 6.63077944,42.02105 C6.70124364,42.02105 32.0814344,42.02105 32.0814344,42.02105 C32.8101507,42.02105 33.4005769,41.4244421 33.4005769,40.6885924 C33.4005769,39.9527426 32.8101507,39.3561347 32.0814344,39.3561347 L15.9584357,39.3561347 L20.2859924,38.0945194 C20.5002431,38.032005 20.6952564,37.915748 20.8530038,37.7565194 L37.5956697,20.8448561 L37.5956697,44.3350847 Z M42.8050731,11.8090168 C42.7906725,11.8245621 42.7767116,11.8404406 42.7631904,11.8565411 L42.7537365,11.8659793 C42.7492295,11.8705319 42.7445025,11.8750845 42.7399955,11.879637 L41.8087908,12.82013 L33.3043894,4.22999778 L34.2570301,3.2677413 C34.2735194,3.25363945 34.2898987,3.23909346 34.3057284,3.22388123 C34.7098257,2.84257627 35.1501995,2.66491526 35.6912677,2.66491526 C36.9809493,2.66491526 38.7482704,3.70267767 40.539446,5.51237721 C41.5206681,6.50328153 44.5838268,9.88605834 42.8050731,11.8090168 Z" id="Shape" fill="#333333" fill-rule="nonzero"></path>
                    </g>
                </g>
            </g>
        </g>
    </g>
</svg>