<?xml version="1.0" encoding="UTF-8"?>
<svg width="186px" height="153px" viewBox="0 0 186 153" version="1.1" xmlns="http://www.w3.org/2000/svg" xmlns:xlink="http://www.w3.org/1999/xlink">
    <!-- Generator: Sketch 46.1 (44463) - http://www.bohemiancoding.com/sketch -->
    <title>Group 11</title>
    <desc>Created with Sketch.</desc>
    <defs></defs>
    <g id="GUI" stroke="none" stroke-width="1" fill="none" fill-rule="evenodd">
        <g id="01-home" transform="translate(-608.000000, -1438.000000)">
            <g id="Group-11" transform="translate(608.000000, 1441.000000)">
                <g id="001-woman" transform="translate(0.000000, 15.000000)" fill-rule="nonzero" fill="#333333">
                    <path d="M89.3198276,96.8280335 C85.7815375,93.4736065 82.2175067,92.0982967 81.6097119,91.8797131 L69.4819212,86.8066762 C69.3849997,86.7660708 69.2857143,86.7328482 69.1840649,86.7072721 L60.7947111,84.5844539 L60.7947111,77.4394874 C60.9176358,77.378052 61.0389847,77.3147709 61.1608588,77.2509624 C61.4082843,77.4178664 61.6935329,77.5362548 62.006886,77.586616 C67.3042088,78.4353741 72.1508073,79.8109476 76.0224127,81.5643622 C76.3058227,81.6925065 76.6023656,81.7534145 76.8941806,81.7534145 C77.6364572,81.7534145 78.344588,81.3568528 78.7306979,80.6834362 C78.814749,80.6053894 78.8953856,80.5220693 78.9678797,80.4279386 C85.8117433,71.5656805 89.5806487,60.0756737 89.5806487,48.0741444 C89.5806487,33.4034699 84.0083212,19.7247271 74.292798,10.545536 C74.2917473,10.5444814 74.2899087,10.543163 74.2888581,10.5421083 C67.0919797,3.74386964 58.0341566,0 48.7824906,0 C26.2867297,0 7.9848578,21.5662079 7.9848578,48.0741444 C7.9848578,60.3401361 11.90059,72.0170859 19.0102654,80.953963 C19.0249743,80.9721563 19.0415219,80.9879766 19.0564935,81.0059062 C19.0704145,81.0219902 19.0845981,81.0372831 19.0987817,81.0528397 C19.153415,81.1134842 19.2106748,81.1701735 19.2702986,81.2231714 C19.2810676,81.2326636 19.291574,81.2424194 19.3026057,81.2521753 C19.5311198,81.4457101 19.7922036,81.5838739 20.0687844,81.6653483 C20.0750882,81.6674577 20.0811294,81.6690397 20.0874332,81.6708854 C20.1767375,81.6964615 20.2668299,81.7159732 20.3587608,81.7296841 C20.3645393,81.7307388 20.3700552,81.7320572 20.3760963,81.7328482 C20.4740684,81.7465591 20.5723032,81.7557876 20.6710633,81.7557876 C20.6926014,81.7557876 20.7141395,81.7510415 20.7359403,81.7502505 C20.807909,81.7478774 20.8798778,81.7423403 20.9515839,81.7323208 C20.9925589,81.7265201 21.0327458,81.7207193 21.0734581,81.7130728 C21.1567212,81.6969889 21.2394591,81.6766862 21.3214089,81.6500554 C21.3626465,81.6366081 21.4028335,81.6197332 21.4435457,81.6033855 C21.4766409,81.590202 21.5102613,81.5793914 21.5430938,81.5643622 C25.46119,79.7901176 30.3716149,78.4042609 35.7432704,77.5570848 C36.0127593,77.5146338 36.2614981,77.4212941 36.4834457,77.2910404 C36.5672341,77.3345462 36.6510226,77.3785793 36.7355991,77.4210304 L36.7355991,84.5641512 L27.8398371,86.7014713 C27.7297826,86.7278384 27.6218295,86.7631704 27.5172909,86.8069398 L15.3895001,91.8799768 C14.7822307,92.0985604 11.2181999,93.4738702 7.67938446,96.8282972 C4.1760281,100.149502 0,106.125349 0,115.734588 L0,132.866899 C0,134.044455 0.950828461,134.998945 2.12334179,134.998945 L27.6607031,134.998945 C28.8334791,134.998945 29.7840449,134.044982 29.7840449,132.867426 C29.7840449,131.690133 28.8332164,130.735907 27.6607031,130.735907 L20.6279871,130.735907 L20.6279871,114.95544 C20.6279871,113.777883 19.6771586,112.82392 18.5046453,112.82392 C17.3318693,112.82392 16.3813035,113.777883 16.3813035,114.95544 L16.3813035,130.735907 L4.24668358,130.735907 L4.24668358,115.734588 C4.24668358,100.416601 16.3208917,96.066287 16.8275625,95.8912092 C16.8748413,95.8751252 16.9218574,95.8577229 16.9680855,95.8382113 L27.065516,91.6141961 L28.4337109,96.5184834 C28.4339736,96.5198017 28.4342362,96.5213837 28.4347615,96.5227021 L37.9819198,130.736434 L33.7791004,130.736434 C32.6063244,130.736434 31.6557586,131.690924 31.6557586,132.867953 C31.6557586,134.04551 32.6065871,134.999473 33.7791004,134.999473 L40.7742561,134.999473 C40.77662,134.999473 40.7787213,135 40.7810852,135 C40.7837118,135 40.7863384,134.999473 40.788965,134.999473 L56.7775921,134.999473 C56.7802187,134.999473 56.7828453,135 56.7854719,135 C56.7878359,135 56.7899372,134.999473 56.7920384,134.999473 L94.8766582,134.999473 C96.0496969,134.999473 97,134.040764 97,132.863735 L97,115.734588 C96.9997373,106.125086 92.8234466,100.149502 89.3198276,96.8280335 Z M21.3521401,77.0126035 C15.4612062,69.0049043 12.2320667,58.7973949 12.2320667,48.0744081 C12.2315414,23.9165744 28.6286045,4.26303855 48.7824906,4.26303855 C57.0680939,4.26303855 64.8827481,7.50909666 71.3820021,13.6500026 C80.2483462,22.0271054 85.3337025,34.5741708 85.3337025,48.0738807 C85.3337025,58.7731372 82.1024617,69.00675 76.2154677,77.0128672 C73.1502279,75.7680747 69.6368904,74.7321099 65.8601052,73.9574434 C69.6053713,70.5291884 72.1728708,65.8289828 72.8894067,60.5463271 C78.0674819,60.1231345 82.1523671,55.7606919 82.1523671,50.4561515 C82.1523671,45.2214839 78.1762231,40.9020197 73.0969079,40.3810051 C73.0803604,39.3832727 72.3766948,38.5276591 71.3993377,38.3277962 C56.9344,35.3678215 50.5714665,26.7167642 50.513156,26.6360808 C50.1483215,26.120867 49.5744099,25.7944418 48.9463903,25.7459263 C48.3186334,25.6974107 47.7011202,25.9304962 47.2619531,26.3837473 C39.007081,34.8889944 26.1848177,38.3196224 26.0576904,38.352845 C25.1331279,38.593577 24.4864595,39.4246691 24.4701746,40.3804778 C19.3898088,40.9007014 15.4128768,45.2209566 15.4128768,50.4558878 C15.4128768,55.7609555 19.4982873,60.1231345 24.6763625,60.5460634 C25.3931611,65.8292464 27.9609233,70.5294521 31.7067146,73.9579708 C27.9294041,74.7331646 24.41738,75.767811 21.3521401,77.0126035 Z M73.0987465,56.2223804 L73.0987465,44.6891315 C75.8272565,45.1816696 77.9059461,47.5773875 77.9059461,50.4564151 C77.9059461,53.3346517 75.8272565,55.7303697 73.0987465,56.2223804 Z M24.4670227,44.6888678 L24.4670227,56.2226441 C21.7385127,55.7306333 19.6595604,53.3349154 19.6595604,50.4564151 C19.6595604,47.5768602 21.7385127,45.1811422 24.4670227,44.6888678 Z M28.7137062,57.5330908 L28.7137062,42.0115488 C32.3504938,40.8585139 41.4450892,37.5090967 48.6322492,30.9750567 C51.3864998,33.8981174 57.8340098,39.4697569 68.8518003,42.1267732 L68.8518003,57.5330908 C68.8518003,67.4397511 60.823341,75.4996572 50.9549498,75.4996572 L46.6113447,75.4996572 C36.7426909,75.4993936 28.7137062,67.4397511 28.7137062,57.5330908 Z M31.1086383,90.2987397 L39.3530039,88.3185677 C40.3082976,88.08891 40.98202,87.2317144 40.98202,86.2455835 L40.98202,79.0323261 C42.7804516,79.5071982 44.6666116,79.7624321 46.6116074,79.7624321 L50.9552124,79.7624321 C52.8865499,79.7624321 54.7606276,79.511417 56.5480275,79.042873 L56.5480275,86.2455835 C56.5480275,87.2224859 57.2091422,88.0738807 58.1523535,88.3122396 L66.4271877,90.4057902 L65.2654434,94.569161 C57.8805006,98.9078732 50.0774034,100.213837 42.0599758,98.4493487 C37.1978803,97.3793704 33.6616915,95.4326847 32.3108321,94.6066023 L31.1086383,90.2987397 Z M55.1737914,130.735643 L42.3919778,130.735643 L33.8765472,100.218584 C35.7600806,101.058377 38.1579019,101.93983 40.9617952,102.57185 C43.2049098,103.077836 45.8653909,103.451458 48.8305574,103.451458 C53.239302,103.451458 58.3209811,102.624057 63.7005164,100.176923 L55.1737914,130.735643 Z M92.7530538,130.735907 L80.6179085,130.735907 L80.6179085,114.95544 C80.6179085,113.777883 79.6676054,112.82392 78.4945667,112.82392 C77.3215281,112.82392 76.3712249,113.777883 76.3712249,114.95544 L76.3712249,130.735907 L59.5835867,130.735907 L70.4408921,91.8261878 L80.0308639,95.8376839 C80.0718388,95.8550862 80.1214815,95.8735432 80.1640324,95.8883088 C80.677795,96.0660233 92.7527911,100.416337 92.7527911,115.734325 L92.7527911,130.735907 L92.7530538,130.735907 Z" id="Shape"></path>
                    <path d="M49.1601256,60 L52.8398744,60 C54.0332342,60 55,59.0619492 55,57.9046138 C55,56.7472784 54.0332342,55.8092276 52.8398744,55.8092276 L51.3202512,55.8092276 L51.3202512,51.0953862 C51.3202512,49.9377916 50.3534854,49 49.1601256,49 C47.967033,49 47,49.9377916 47,51.0953862 L47,57.9046138 C47,59.0619492 47.967033,60 49.1601256,60 Z" id="Shape"></path>
                </g>
                <g id="Group-7" transform="translate(96.000000, 0.000000)">
                    <g id="Group-5">
                        <circle id="Oval-4-Copy" stroke="#333333" stroke-width="5" cx="47" cy="40" r="40"></circle>
                        <polyline id="Path-3-Copy" stroke="#333333" stroke-width="5" points="9.5 56 0 74 19.5 69.5"></polyline>
                        <g id="003-computer" transform="translate(21.000000, 19.000000)">
                            <path d="M48,3 L3,3 L3,33 L18.9305443,33 L32.0694557,33 L48,33 L48,3 Z M43.0032052,8.49335268 L8.38121185,8.49335268 L8.38121185,28.4180235 C8.38121185,29.266789 7.70732183,29.9544824 6.87615318,29.9544824 C6.04485911,29.9544824 5.37109451,29.266789 5.37109451,28.4180235 L5.37109451,6.95689379 C5.37109451,6.10838437 6.04485911,5.4204349 6.87615318,5.4204349 L43.0032052,5.4204349 C43.8343739,5.4204349 44.5082639,6.10838437 44.5082639,6.95689379 C44.5082639,7.80565929 43.8343739,8.49335268 43.0032052,8.49335268 Z" id="Shape"></path>
                            <path d="M49.4955382,35.5816738 C50.3263772,35.5816738 51,34.9044618 51,34.0691959 L51,1.51247794 C51,0.677211999 50.3263772,0 49.4955382,0 L1.50446176,0 C0.673622754,0 0,0.677211999 0,1.51247794 L0,34.0691959 C0,34.9044618 0.673622754,35.5816738 1.50446176,35.5816738 L17.428688,35.5816738 L17.428688,39.9750441 L1.50446176,39.9750441 C0.673622754,39.9750441 0,40.6522561 0,41.4875221 C0,42.322788 0.673622754,43 1.50446176,43 L18.9331498,43 L32.0668502,43 L49.4955382,43 C50.3263772,43 51,42.322788 51,41.4875221 C51,40.6522561 50.3263772,39.9750441 49.4955382,39.9750441 L33.571312,39.9750441 L33.571312,35.5816738 L49.4955382,35.5816738 Z M30.5622631,39.9750441 L20.4374862,39.9750441 L20.4374862,35.5816738 L30.5622631,35.5816738 L30.5622631,39.9750441 L30.5622631,39.9750441 Z M32.0667248,32.5567179 L18.9331498,32.5567179 L3.00892352,32.5567179 L3.00892352,3.02495589 L47.9910765,3.02495589 L47.9910765,32.5567179 L32.0667248,32.5567179 Z" id="Shape" fill="#333333" fill-rule="nonzero"></path>
                            <path d="M42.5002163,6 L6.49978369,6 C5.67140316,6 5,6.67297445 5,7.50301386 L5,28.4969861 C5,29.327276 5.67140316,30 6.49978369,30 C7.32803923,30 7.99956737,29.327276 7.99956737,28.4969861 L7.99956737,9.00602771 L42.5002163,9.00602771 C43.3284719,9.00602771 44,8.33330376 44,7.50301386 C44,6.67297445 43.3284719,6 42.5002163,6 Z" id="Shape" fill="#333333" fill-rule="nonzero"></path>
                        </g>
                    </g>
                </g>
            </g>
        </g>
    </g>
</svg>