<?xml version="1.0" encoding="UTF-8"?>
<svg width="132px" height="127px" viewBox="0 0 132 127" version="1.1" xmlns="http://www.w3.org/2000/svg" xmlns:xlink="http://www.w3.org/1999/xlink">
    <!-- Generator: Sketch 46.1 (44463) - http://www.bohemiancoding.com/sketch -->
    <title>002-monitor</title>
    <desc>Created with Sketch.</desc>
    <defs></defs>
    <g id="GUI" stroke="none" stroke-width="1" fill="none" fill-rule="evenodd">
        <g id="01-home" transform="translate(-608.000000, -511.000000)" fill-rule="nonzero" fill="#333333">
            <g id="002-monitor" transform="translate(608.000000, 511.000000)">
                <path d="M121.161797,0.0141240949 L10.4770861,0.0141240949 C4.70027758,0.0141240949 0,4.79486868 0,10.6723231 L0,26.1627934 C0,27.3664802 0.959287548,28.342089 2.14226316,28.342089 C3.32549588,28.342089 4.28452632,27.3662186 4.28452632,26.1627934 L4.28452632,10.6723231 C4.28452632,7.19858039 7.06262923,4.37271517 10.4770861,4.37271517 L121.16154,4.37271517 C124.577796,4.37271517 127.356928,7.19884195 127.356928,10.6723231 L127.356928,85.0623618 L119.010535,85.0623618 L119.010535,58.1193429 C119.010535,53.8899611 115.628217,50.4494362 111.470961,50.4494362 L80.2772753,50.4494362 C76.1197626,50.4494362 72.7377019,53.8902227 72.7377019,58.1193429 L72.7377019,99.7163719 L10.4770861,99.7163719 C7.06262923,99.7163719 4.28452632,96.8902451 4.28452632,93.416764 L4.28452632,89.421476 L67.7389165,89.421476 C68.9221492,89.421476 69.8811796,88.4456057 69.8811796,87.2421805 C69.8811796,86.0384937 68.9218921,85.0628849 67.7389165,85.0628849 L4.28452632,85.0628849 L4.28452632,33.4272863 C4.28452632,32.2235995 3.32523877,31.2479907 2.14226316,31.2479907 C0.959287548,31.2479907 0,32.2238611 0,33.4272863 L0,93.4165024 C0,99.2936952 4.70027758,104.074701 10.4770861,104.074701 L47.1894397,104.074701 L41.9199145,116.615851 L31.6284638,116.615851 C30.4452311,116.615851 29.4862006,117.591722 29.4862006,118.795147 C29.4862006,119.998834 30.4454882,120.974443 31.6284638,120.974443 L43.3337774,120.974443 L67.2082358,120.974443 L67.4938881,120.974443 C68.6771208,120.974443 69.6361512,119.998572 69.6361512,118.795147 C69.6361512,117.59146 68.6768637,116.615851 67.4938881,116.615851 L67.2082358,116.615851 L46.5793112,116.615851 L50.2408534,107.901546 L72.7374448,107.901546 L72.7374448,118.909448 C72.7374448,123.138829 76.1197626,126.579354 80.2770181,126.579354 L111.470704,126.579354 C115.628217,126.579354 119.010278,123.138568 119.010278,118.909448 L119.010278,89.4209529 L127.356671,89.4209529 L127.356671,93.4162409 C127.356671,95.9536084 125.871073,98.2322957 123.571971,99.221767 C122.482328,99.6907393 121.972473,100.969231 122.433476,102.077711 C122.779036,102.909464 123.572486,103.408776 124.407588,103.408776 C124.685784,103.408776 124.968865,103.353326 125.241147,103.236149 C129.128949,101.563228 131.641197,97.7089195 131.641197,93.4165024 L131.641197,10.6723231 C131.641711,4.79486868 126.940405,0.0141240949 121.161797,0.0141240949 Z M77.021714,58.1193429 L77.021714,58.1193429 C77.0219711,56.2934113 78.4821143,54.8080273 80.2770181,54.8080273 L111.470704,54.8080273 C113.265608,54.8080273 114.725751,56.2934113 114.725751,58.1193429 L114.725751,108.854923 L77.021714,108.854923 L77.021714,58.1193429 Z M114.726266,118.909971 C114.726266,120.735641 113.266122,122.221286 111.470961,122.221286 L80.2772753,122.221286 C78.4823714,122.221286 77.0222283,120.735902 77.0222283,118.909971 L77.0222283,113.213514 L114.726266,113.213514 L114.726266,118.909971 Z" id="Shape"></path>
                <path d="M67.6011041,92.8410763 C66.5759957,91.2589161 64.0768601,91.7626755 63.7192163,93.6257483 C63.5464365,94.5255054 63.9591024,95.4678964 64.7378968,95.9303298 C65.5156628,96.3919784 66.5271442,96.3027874 67.2115783,95.7066982 C68.0291967,94.9947392 68.1914349,93.7528651 67.6011041,92.8410763 Z" id="Shape"></path>
                <path d="M97.8529864,116.883163 C97.5125691,116.062396 96.7013785,115.516265 95.8215388,115.539282 C94.9442702,115.562037 94.1546771,116.143217 93.8589974,116.982816 C93.5574042,117.83994 93.8245443,118.822611 94.5154062,119.401175 C95.2350647,120.003803 96.2863986,120.053499 97.0618505,119.530385 C97.9082656,118.959143 98.2281138,117.836016 97.8529864,116.883163 Z" id="Shape"></path>
                <path d="M101.729732,57.4230773 L90.0185048,57.4230773 C88.835272,57.4230773 87.8762416,58.3989477 87.8762416,59.6023729 C87.8762416,60.8060596 88.8355292,61.7816684 90.0185048,61.7816684 L101.729732,61.7816684 C102.912965,61.7816684 103.871995,60.8057981 103.871995,59.6023729 C103.871995,58.3986861 102.912965,57.4230773 101.729732,57.4230773 Z" id="Shape"></path>
            </g>
        </g>
    </g>
</svg>