<?xml version="1.0" encoding="UTF-8"?>
<svg width="140px" height="127px" viewBox="0 0 140 127" version="1.1" xmlns="http://www.w3.org/2000/svg" xmlns:xlink="http://www.w3.org/1999/xlink">
    <!-- Generator: Sketch 46.1 (44463) - http://www.bohemiancoding.com/sketch -->
    <title>Group 3</title>
    <desc>Created with Sketch.</desc>
    <defs></defs>
    <g id="GUI" stroke="none" stroke-width="1" fill="none" fill-rule="evenodd">
        <g id="01-home" transform="translate(-895.000000, -511.000000)">
            <g id="Group-3" transform="translate(897.000000, 511.000000)">
                <g id="001-avatar" transform="translate(4.689655, 0.000000)" fill-rule="nonzero" fill="#333333">
                    <path d="M123.593786,121.183024 L117.931143,109.63863 C114.817704,103.286936 108.558352,99.3422222 101.594722,99.3422222 L91.3329565,99.3422222 C84.1176529,99.3422222 78.1546257,93.8245896 77.2555034,86.7133422 C84.4951625,81.9118015 89.3033352,73.6022385 89.3033352,64.1585185 L89.3033352,39.322963 C89.3033352,31.3362622 82.9303245,24.8355556 75.0959864,24.8355556 L28.4146976,24.8355556 C27.2943466,24.8355556 26.3850763,25.76068 26.3850763,26.9051852 C26.3850763,30.6760504 28.0412473,34.0598948 30.6533698,36.3406267 C30.5194148,36.6138178 30.4443188,36.9263319 30.4443188,37.2533333 C30.4443188,41.7133852 32.7946202,45.7946948 36.5331826,47.9967807 L36.5331826,64.1585185 C36.5331826,73.6022385 41.3413553,81.9118015 48.5810144,86.7133422 C47.6818921,93.8245896 41.7188649,99.3422222 34.5035613,99.3422222 L24.2417963,99.3422222 C17.2781657,99.3422222 11.0167842,103.286936 7.90334517,109.63863 L2.24273149,121.183024 C2.10268762,121.468633 2.02962125,121.787356 2.02962125,122.108148 L2.02962125,124.177778 L6.08886376,124.177778 L6.08886376,122.596581 L11.5363672,111.488879 C13.9577054,106.548673 18.8267668,103.481481 24.2417963,103.481481 L34.5035613,103.481481 C43.2491993,103.481481 50.5720728,97.1794593 52.350021,88.7953896 C55.5892966,90.2462 59.1594003,91.0637037 62.9182589,91.0637037 C66.6771175,91.0637037 70.2472213,90.2462 73.4864968,88.7953896 C75.264445,97.1794593 82.5873185,103.481481 91.3329565,103.481481 L101.594722,103.481481 C107.009751,103.481481 111.878812,106.548673 114.30218,111.488879 L119.747654,122.596581 L119.747654,124.177778 L123.806897,124.177778 L123.806897,122.108148 C123.806897,121.787356 123.73383,121.468633 123.593786,121.183024 Z M62.9182589,86.9244444 C50.608606,86.9244444 40.5924251,76.7108222 40.5924251,64.1585185 L40.5924251,46.7280978 C40.5924251,45.9064548 40.1154641,45.1613881 39.376682,44.832317 C37.0547953,43.7954326 35.3783281,41.7444296 34.7633529,39.322963 L38.5628038,39.322963 C39.6831548,39.322963 40.5924251,38.3978385 40.5924251,37.2533333 C40.5924251,36.1088281 39.6831548,35.1837037 38.5628038,35.1837037 C34.7877083,35.1837037 31.6052622,32.5428563 30.7000511,28.9748148 L75.0959864,28.9748148 C80.6916522,28.9748148 85.2440927,33.6169941 85.2440927,39.322963 L85.2440927,64.1585185 C85.2440927,76.7108222 75.2279118,86.9244444 62.9182589,86.9244444 Z" id="Shape"></path>
                    <path d="M72.8532549,121.183024 L67.1216045,109.493756 L70.6308197,104.723259 C71.0935733,104.096161 71.1666397,103.257961 70.8236337,102.556357 C70.4806277,101.854753 69.7763491,101.411852 69.0071227,101.411852 L56.8293951,101.411852 C56.0601687,101.411852 55.3579197,101.854753 55.0128841,102.556357 C54.6678485,103.257961 54.7449741,104.096161 55.2056981,104.723259 L58.7149133,109.493756 L52.9832629,121.183024 C52.843219,121.468633 52.7701526,121.787356 52.7701526,122.108148 L52.7701526,124.177778 L56.8293951,124.177778 L56.8293951,122.596581 L61.4650501,113.144582 C61.8445893,113.558508 62.3540242,113.82963 62.9182589,113.82963 C63.4824936,113.82963 63.9919285,113.558508 64.3714677,113.144582 L69.0071227,122.596581 L69.0071227,124.177778 L73.0663652,124.177778 L73.0663652,122.108148 C73.0663652,121.787356 72.9932988,121.468633 72.8532549,121.183024 Z M62.9182589,108.309927 L60.8886376,105.551111 L64.9478802,105.551111 L62.9182589,108.309927 Z" id="Shape"></path>
                    <path d="M69.6018017,8.88492 L64.9478802,13.6305807 L64.9478802,0 L60.8886376,0 L60.8886376,13.6305807 L56.2347161,8.88492 L53.3648317,11.8113763 L61.4833167,20.0898948 C61.8790928,20.4934726 62.3986759,20.6962963 62.9182589,20.6962963 C63.4378419,20.6962963 63.957425,20.4934726 64.3532011,20.0898948 L72.4716862,11.8113763 L69.6018017,8.88492 Z" id="Shape"></path>
                    <path d="M113.65879,49.6711111 L100.291705,49.6711111 L104.945626,44.9254504 L102.075742,41.9989941 L93.9572568,50.2775126 C93.1636748,51.0867378 93.1636748,52.3947437 93.9572568,53.2039689 L102.075742,61.4824874 L104.945626,58.5560311 L100.291705,53.8103704 L113.65879,53.8103704 L113.65879,49.6711111 Z" id="Shape"></path>
                    <path d="M31.8792611,50.2775126 L23.760776,41.9989941 L20.8908916,44.9254504 L25.5448131,49.6711111 L12.1777275,49.6711111 L12.1777275,53.8103704 L25.5448131,53.8103704 L20.8908916,58.5560311 L23.760776,61.4824874 L31.8792611,53.2039689 C32.672843,52.3947437 32.672843,51.0867378 31.8792611,50.2775126 Z" id="Shape"></path>
                    <rect id="Rectangle-path" x="117.718033" y="49.6711111" width="4.05924251" height="4.13925926"></rect>
                    <rect id="Rectangle-path" x="4.05924251" y="49.6711111" width="4.05924251" height="4.13925926"></rect>
                    <path d="M52.7701526,47.6014815 C48.2928081,47.6014815 44.6516676,51.314397 44.6516676,55.88 C44.6516676,60.445603 48.2928081,64.1585185 52.7701526,64.1585185 C57.2474971,64.1585185 60.8886376,60.445603 60.8886376,55.88 C60.8886376,51.314397 57.2474971,47.6014815 52.7701526,47.6014815 Z M52.7701526,60.0192593 C50.5314804,60.0192593 48.7109101,58.1628015 48.7109101,55.88 C48.7109101,53.5971985 50.5314804,51.7407407 52.7701526,51.7407407 C55.0088249,51.7407407 56.8293951,53.5971985 56.8293951,55.88 C56.8293951,58.1628015 55.0088249,60.0192593 52.7701526,60.0192593 Z" id="Shape"></path>
                    <path d="M73.0663652,47.6014815 C68.5890207,47.6014815 64.9478802,51.314397 64.9478802,55.88 C64.9478802,60.445603 68.5890207,64.1585185 73.0663652,64.1585185 C77.5437097,64.1585185 81.1848502,60.445603 81.1848502,55.88 C81.1848502,51.314397 77.5437097,47.6014815 73.0663652,47.6014815 Z M73.0663652,60.0192593 C70.8276929,60.0192593 69.0071227,58.1628015 69.0071227,55.88 C69.0071227,53.5971985 70.8276929,51.7407407 73.0663652,51.7407407 C75.3050374,51.7407407 77.1256077,53.5971985 77.1256077,55.88 C77.1256077,58.1628015 75.3050374,60.0192593 73.0663652,60.0192593 Z" id="Shape"></path>
                    <path d="M117.718033,0 L93.3625777,0 C90.0055842,0 87.273714,2.78572148 87.273714,6.20888889 L87.273714,18.6266667 C87.273714,22.0498341 90.0055842,24.8355556 93.3625777,24.8355556 L93.3625777,28.9748148 C93.3625777,29.7198815 93.7563243,30.4069985 94.3915957,30.7753926 C94.7021278,30.9554504 95.0471634,31.0444444 95.392199,31.0444444 C95.7534716,31.0444444 96.1147441,30.9451022 96.4374539,30.7484874 L106.10251,24.8355556 L117.718033,24.8355556 C121.075026,24.8355556 123.806897,22.0498341 123.806897,18.6266667 L123.806897,6.20888889 C123.806897,2.78572148 121.075026,0 117.718033,0 Z M119.747654,18.6266667 C119.747654,19.7691022 118.836354,20.6962963 117.718033,20.6962963 L105.540305,20.6962963 C105.172944,20.6962963 104.811671,20.7977081 104.49505,20.9922533 L97.4218202,25.3177793 L97.4218202,22.7659259 C97.4218202,21.6214207 96.5125499,20.6962963 95.392199,20.6962963 L93.3625777,20.6962963 C92.2442564,20.6962963 91.3329565,19.7691022 91.3329565,18.6266667 L91.3329565,6.20888889 C91.3329565,5.06645333 92.2442564,4.13925926 93.3625777,4.13925926 L117.718033,4.13925926 C118.836354,4.13925926 119.747654,5.06645333 119.747654,6.20888889 L119.747654,18.6266667 Z" id="Shape"></path>
                    <rect id="Rectangle-path" x="95.392199" y="10.3481481" width="4.05924251" height="4.13925926"></rect>
                    <rect id="Rectangle-path" x="103.510684" y="10.3481481" width="4.05924251" height="4.13925926"></rect>
                    <rect id="Rectangle-path" x="111.629169" y="10.3481481" width="4.05924251" height="4.13925926"></rect>
                    <path d="M30.8867763,74.5232237 L32.4333477,66.6337956 C32.6018062,65.7728296 32.2202374,64.8973763 31.4814553,64.4482667 C30.7426731,63.9970874 29.8070178,64.0736637 29.1453612,64.636603 L17.5318684,74.5066667 L6.08886376,74.5066667 C2.73187021,74.5066667 0,77.2923881 0,80.7155556 L0,88.9940741 C0,92.4172415 2.73187021,95.202963 6.08886376,95.202963 L30.4443188,95.202963 C33.8013124,95.202963 36.5331826,92.4172415 36.5331826,88.9940741 L36.5331826,80.7155556 C36.5331826,77.4434711 34.0387781,74.7550222 30.8867763,74.5232237 Z M32.4739401,88.9940741 C32.4739401,90.1365096 31.5626401,91.0637037 30.4443188,91.0637037 L6.08886376,91.0637037 C4.97054245,91.0637037 4.05924251,90.1365096 4.05924251,88.9940741 L4.05924251,80.7155556 C4.05924251,79.57312 4.97054245,78.6459259 6.08886376,78.6459259 L18.2665913,78.6459259 C18.7415227,78.6459259 19.2002171,78.4762163 19.5655489,78.1678415 L27.3268206,71.5719319 L26.4256687,76.1706489 C26.3059211,76.77912 26.4601723,77.410357 26.8458003,77.8884415 C27.2314284,78.3665259 27.8058112,78.6459259 28.4146976,78.6459259 L30.4443188,78.6459259 C31.5626401,78.6459259 32.4739401,79.57312 32.4739401,80.7155556 L32.4739401,88.9940741 Z" id="Shape"></path>
                    <rect id="Rectangle-path" x="24.3554551" y="82.7851852" width="4.05924251" height="4.13925926"></rect>
                    <rect id="Rectangle-path" x="16.23697" y="82.7851852" width="4.05924251" height="4.13925926"></rect>
                    <rect id="Rectangle-path" x="8.11848502" y="82.7851852" width="4.05924251" height="4.13925926"></rect>
                    <path d="M73.0663652,70.3674074 C73.0663652,73.7905748 70.334495,76.5762963 66.9775014,76.5762963 L66.9775014,80.7155556 C72.5731672,80.7155556 77.1256077,76.0733763 77.1256077,70.3674074 L73.0663652,70.3674074 Z" id="Shape"></path>
                    <path d="M24.3554551,0 L8.11848502,0 C4.76149146,0 2.02962125,2.78572148 2.02962125,6.20888889 L2.02962125,14.4874074 C2.02962125,17.9105748 4.76149146,20.6962963 8.11848502,20.6962963 L11.6155224,20.6962963 L21.2805789,26.6092281 C21.6032886,26.805843 21.9645612,26.9051852 22.3258338,26.9051852 C22.6708694,26.9051852 23.015905,26.8161911 23.3264371,26.6361333 C23.9617085,26.2677393 24.3554551,25.5806222 24.3554551,24.8355556 L24.3554551,20.6962963 C27.7124486,20.6962963 30.4443188,17.9105748 30.4443188,14.4874074 L30.4443188,6.20888889 C30.4443188,2.78572148 27.7124486,0 24.3554551,0 Z M26.3850763,14.4874074 C26.3850763,15.629843 25.4737764,16.557037 24.3554551,16.557037 L22.3258338,16.557037 C21.2054829,16.557037 20.2962125,17.4821615 20.2962125,18.6266667 L20.2962125,21.17852 L13.2229825,16.8509244 C12.9063616,16.6584489 12.545089,16.557037 12.1777275,16.557037 L8.11848502,16.557037 C7.00016371,16.557037 6.08886376,15.629843 6.08886376,14.4874074 L6.08886376,6.20888889 C6.08886376,5.06645333 7.00016371,4.13925926 8.11848502,4.13925926 L24.3554551,4.13925926 C25.4737764,4.13925926 26.3850763,5.06645333 26.3850763,6.20888889 L26.3850763,14.4874074 Z" id="Shape"></path>
                    <rect id="Rectangle-path" x="18.2665913" y="8.27851852" width="4.05924251" height="4.13925926"></rect>
                    <rect id="Rectangle-path" x="10.1481063" y="8.27851852" width="4.05924251" height="4.13925926"></rect>
                    <path d="M111.629169,74.5066667 L108.132132,74.5066667 L98.4670752,68.5937348 C97.8399222,68.2087837 97.058518,68.1984356 96.4232466,68.5668296 C95.7859455,68.9352237 95.392199,69.6223407 95.392199,70.3674074 L95.392199,74.5066667 C92.0352054,74.5066667 89.3033352,77.2923881 89.3033352,80.7155556 L89.3033352,88.9940741 C89.3033352,92.4172415 92.0352054,95.202963 95.392199,95.202963 L111.629169,95.202963 C114.986163,95.202963 117.718033,92.4172415 117.718033,88.9940741 L117.718033,80.7155556 C117.718033,77.2923881 114.986163,74.5066667 111.629169,74.5066667 Z M113.65879,88.9940741 C113.65879,90.1365096 112.74749,91.0637037 111.629169,91.0637037 L95.392199,91.0637037 C94.2738777,91.0637037 93.3625777,90.1365096 93.3625777,88.9940741 L93.3625777,80.7155556 C93.3625777,79.57312 94.2738777,78.6459259 95.392199,78.6459259 L97.4218202,78.6459259 C98.5421712,78.6459259 99.4514415,77.7208015 99.4514415,76.5762963 L99.4514415,74.024443 L106.524672,78.3520385 C106.841292,78.5445141 107.202565,78.6459259 107.569927,78.6459259 L111.629169,78.6459259 C112.74749,78.6459259 113.65879,79.57312 113.65879,80.7155556 L113.65879,88.9940741 Z" id="Shape"></path>
                    <rect id="Rectangle-path" x="97.4218202" y="82.7851852" width="4.05924251" height="4.13925926"></rect>
                    <rect id="Rectangle-path" x="105.540305" y="82.7851852" width="4.05924251" height="4.13925926"></rect>
                </g>
                <path d="M135.330179,124.491358 L0.595180976,124.491358" id="Line-2" stroke="#333333" stroke-width="4" stroke-linecap="square"></path>
            </g>
        </g>
    </g>
</svg>