<?xml version="1.0" encoding="UTF-8"?>
<svg width="127px" height="127px" viewBox="0 0 127 127" version="1.1" xmlns="http://www.w3.org/2000/svg" xmlns:xlink="http://www.w3.org/1999/xlink">
    <!-- Generator: Sketch 46.1 (44463) - http://www.bohemiancoding.com/sketch -->
    <title>003-support</title>
    <desc>Created with Sketch.</desc>
    <defs></defs>
    <g id="GUI" stroke="none" stroke-width="1" fill="none" fill-rule="evenodd">
        <g id="01-home" transform="translate(-320.000000, -511.000000)" fill-rule="nonzero" fill="#333333">
            <g id="003-support" transform="translate(320.000000, 511.000000)">
                <path d="M55,40 C51.692,40 49,42.692 49,46 L53,46 C53,44.898 53.896,44 55,44 C56.104,44 57,44.898 57,46 L61,46 C61,42.692 58.308,40 55,40 Z" id="Shape"></path>
                <path d="M72,40 C68.692,40 66,42.692 66,46 L70,46 C70,44.898 70.896,44 72,44 C73.104,44 74,44.898 74,46 L78,46 C78,42.692 75.308,40 72,40 Z" id="Shape"></path>
                <path d="M63.5,97 C58.81225,97 55,100.81225 55,105.5 C55,110.18775 58.81225,114 63.5,114 C68.18775,114 72,110.18775 72,105.5 C72,100.81225 68.18775,97 63.5,97 Z M63.5,109.75 C61.156125,109.75 59.25,107.843875 59.25,105.5 C59.25,103.156125 61.156125,101.25 63.5,101.25 C65.843875,101.25 67.75,103.156125 67.75,105.5 C67.75,107.843875 65.843875,109.75 63.5,109.75 Z" id="Shape"></path>
                <path d="M114.3,122.766667 L114.3,95.25 C114.3,77.74305 100.05695,63.5 82.55,63.5 L80.24495,63.5 C80.9984833,62.8374833 81.7075667,62.1305167 82.37855,61.3833333 L84.6666667,61.3833333 C90.5023167,61.3833333 95.25,56.63565 95.25,50.8 L95.25,47.0704333 C97.8005833,45.3601667 99.4833333,42.4518667 99.4833333,39.1583333 C99.4833333,35.8521 97.7878833,32.9395667 95.2246,31.2314167 C94.9430833,13.9657667 80.8333833,0 63.5,0 C46.1666167,0 32.0569167,13.9657667 31.7754,31.2314167 C29.2121167,32.9395667 27.5166667,35.8521 27.5166667,39.1583333 C27.5166667,44.4097833 31.7902167,48.6833333 37.0416667,48.6833333 L38.4831167,48.6833333 C39.4737167,54.5486167 42.4709167,59.7281 46.7571667,63.5 L44.45,63.5 C26.94305,63.5 12.7,77.74305 12.7,95.25 L12.7,122.766667 L0,122.766667 L0,127 L14.8166667,127 L25.4,127 L101.6,127 L112.183333,127 L127,127 L127,122.766667 L114.3,122.766667 Z M91.0166667,50.8 C91.0166667,54.0109833 88.6121333,56.6441167 85.51545,57.0632167 C86.9823,54.5126333 88.011,51.6868833 88.5168833,48.6833333 L89.9583333,48.6833333 C90.3202833,48.6833333 90.6653,48.6156 91.0166667,48.5753833 L91.0166667,50.8 Z M95.25,39.1583333 C95.25,42.0751 92.8772167,44.45 89.9583333,44.45 L88.9,44.45 L88.9,33.8666667 L89.9583333,33.8666667 C92.8772167,33.8666667 95.25,36.2415667 95.25,39.1583333 Z M38.1,44.45 L37.0416667,44.45 C34.1227833,44.45 31.75,42.0751 31.75,39.1583333 C31.75,36.2415667 34.1227833,33.8666667 37.0416667,33.8666667 L38.1,33.8666667 L38.1,44.45 Z M37.0416667,29.6333333 C36.7135833,29.6333333 36.40455,29.6968333 36.0849333,29.7307 C37.1263333,15.50035 49.0093,4.23333333 63.5,4.23333333 C77.9907,4.23333333 89.8736667,15.50035 90.9150667,29.7307 C90.59545,29.6968333 90.2864167,29.6333333 89.9583333,29.6333333 L88.5168833,29.6333333 C86.49335,17.6403 76.0603,8.46666667 63.5,8.46666667 C50.9397,8.46666667 40.50665,17.6403 38.4831167,29.6333333 L37.0416667,29.6333333 Z M84.66455,33.81375 C69.3885667,33.2761167 59.2666667,27.0298333 59.2666667,21.1666667 C59.2666667,19.9982667 58.3205167,19.05 57.15,19.05 C55.9794833,19.05 55.0333333,19.9982667 55.0333333,21.1666667 C55.0333333,26.4562167 49.5638667,30.8398333 42.4561,31.61665 C43.5842833,20.99945 52.5907,12.7 63.5,12.7 C75.15225,12.7 84.6349167,22.16785 84.66455,33.81375 Z M42.3333333,44.45 L42.3333333,35.8648 C48.9436833,35.2911833 54.55285,32.1034833 57.3532,27.6394333 C61.7812667,33.5068333 72.12965,37.63645 84.6666667,38.0576667 L84.6666667,44.45 C84.6666667,49.21885 83.0622333,53.6067 80.3931167,57.15 L63.5,57.15 L63.5,61.3833333 L76.1449667,61.3833333 C74.93,62.2935 73.6197833,63.0766667 72.2227833,63.7116667 C66.66865,66.2347333 60.3292333,66.2347333 54.7729833,63.7116667 C47.4493167,60.3800333 42.3333333,53.0098 42.3333333,44.45 Z M56.9573833,68.9652333 C59.04865,69.5240333 61.2351667,69.85 63.5,69.85 C65.7648333,69.85 67.95135,69.5240333 70.0426167,68.9652333 L63.5,82.0504667 L56.9573833,68.9652333 Z M60.0752333,84.6666667 L56.3414333,84.6666667 L47.8747667,67.7333333 L51.6085667,67.7333333 L60.0752333,84.6666667 Z M75.3914333,67.7333333 L79.1252333,67.7333333 L70.6585667,84.6666667 L66.9247667,84.6666667 L75.3914333,67.7333333 Z M23.2833333,95.25 L23.2833333,122.766667 L16.9333333,122.766667 L16.9333333,95.25 C16.9333333,80.5074167 28.5961667,68.47205 43.17365,67.79895 L51.6085667,84.6666667 L33.8666667,84.6666667 C28.0310167,84.6666667 23.2833333,89.41435 23.2833333,95.25 Z M99.4833333,122.766667 L27.5166667,122.766667 L27.5166667,95.25 C27.5166667,91.7490333 30.3657,88.9 33.8666667,88.9 L55.0333333,88.9 L63.5,88.9 L71.9666667,88.9 L93.1333333,88.9 C96.6343,88.9 99.4833333,91.7490333 99.4833333,95.25 L99.4833333,122.766667 Z M110.066667,122.766667 L103.716667,122.766667 L103.716667,95.25 C103.716667,89.41435 98.9689833,84.6666667 93.1333333,84.6666667 L75.3914333,84.6666667 L83.82635,67.79895 C98.4038333,68.47205 110.066667,80.5074167 110.066667,95.25 L110.066667,122.766667 Z" id="Shape"></path>
                <rect id="Rectangle-path" x="91" y="103" width="4" height="15"></rect>
                <rect id="Rectangle-path" x="91" y="95" width="4" height="4"></rect>
                <rect id="Rectangle-path" x="110" y="19" width="4" height="4"></rect>
                <rect id="Rectangle-path" x="110" y="28" width="4" height="4"></rect>
                <rect id="Rectangle-path" x="110" y="36" width="4" height="4"></rect>
                <rect id="Rectangle-path" x="12" y="44" width="4" height="4"></rect>
                <rect id="Rectangle-path" x="12" y="53" width="4" height="4"></rect>
                <rect id="Rectangle-path" x="12" y="61" width="4" height="4"></rect>
            </g>
        </g>
    </g>
</svg>