<?xml version="1.0" encoding="UTF-8"?>
<svg width="175px" height="153px" viewBox="0 0 175 153" version="1.1" xmlns="http://www.w3.org/2000/svg" xmlns:xlink="http://www.w3.org/1999/xlink">
    <!-- Generator: Sketch 46.1 (44463) - http://www.bohemiancoding.com/sketch -->
    <title>Group 10</title>
    <desc>Created with Sketch.</desc>
    <defs></defs>
    <g id="GUI" stroke="none" stroke-width="1" fill="none" fill-rule="evenodd">
        <g id="01-home" transform="translate(-321.000000, -1438.000000)">
            <g id="Group-10" transform="translate(321.000000, 1441.000000)">
                <g id="man" transform="translate(0.000000, 17.000000)" fill-rule="nonzero" fill="#333333">
                    <path d="M85.7614275,92.3215833 C85.7609062,92.3213235 85.7603849,92.320804 85.759603,92.3205442 C83.680944,90.9767714 82.0083729,90.3390443 81.6121897,90.1972117 L69.5494517,85.1873523 L61.0448044,79.594057 C60.9629613,79.5400255 60.8777297,79.4950859 60.7914556,79.453783 L60.7914556,75.8297786 C67.2132736,72.6343892 71.8655599,66.4215505 72.8695718,59.0654788 C78.0473222,58.647774 82.1332228,54.3177239 82.1332228,49.0517346 C82.1332228,46.4460154 81.13286,44.0691507 79.4954763,42.2816964 L79.4954763,29.4211696 C79.4959976,13.1979637 66.2533112,0 49.9756524,0 L47.6905611,0 C31.4142055,0 18.172301,13.1979637 18.172301,29.4203903 L18.172301,42.1372662 C16.454638,43.9403064 15.3971936,46.3743198 15.3971936,49.0509553 C15.3971936,54.3169446 19.4830942,58.6469947 24.6608447,59.0646995 C25.6651171,66.4210309 30.3176641,72.6338697 36.7397427,75.8289993 L36.7397427,79.2181747 L27.8748814,85.0478576 C27.7547232,85.0743538 27.6350863,85.1096821 27.5175345,85.1585182 L15.3885923,90.1959129 C14.782067,90.4122985 11.2177208,91.7773722 7.67891797,95.1081 C4.17582379,98.4050582 0,104.337089 0,113.87624 L0,130.887058 C0,132.05341 0.948233378,132.999221 2.11879855,132.999221 L27.1471553,132.999221 C28.3174598,132.999221 29.2659539,132.05419 29.2659539,130.887578 C29.2659539,129.721225 28.3177205,128.775935 27.1471553,128.775935 L20.6202966,128.775935 L20.6202966,113.102914 C20.6202966,111.936562 19.6720632,110.991271 18.501498,110.991271 C17.3309329,110.991271 16.3826995,111.936302 16.3826995,113.102914 L16.3826995,128.775935 L4.23785775,128.775935 L4.23785775,113.876759 C4.23785775,98.6643053 16.3167558,94.3438666 16.8234534,94.1698229 C16.8708911,94.1537174 16.9175469,94.1365728 16.9636814,94.1173501 L27.0671367,89.9210798 L37.9882413,128.776194 L33.7782728,128.776194 C32.6079683,128.776194 31.6594742,129.721225 31.6594742,130.887837 C31.6594742,132.054449 32.6077076,132.99948 33.7782728,132.99948 L40.7740353,132.99948 C40.7763811,132.99948 40.7784663,133 40.7810727,133 C40.7839399,133 40.786807,132.99948 40.7891528,132.99948 L56.7493437,132.99948 L56.7550779,132.99948 L56.7785361,132.99948 C56.7814032,132.99948 56.7842704,133 56.7866162,133 C56.788962,133 56.7910472,132.99948 56.7936537,132.99948 L94.8812014,132.99948 C96.051506,132.99948 97,132.049774 97,130.883681 L97,113.8765 C96.9997394,101.447965 89.9594063,95.0371837 85.7614275,92.3215833 Z M66.12794,87.9964687 L59.746001,101.069225 L51.8296337,95.2624014 L60.1990052,86.6041195 C60.6637386,86.1235513 60.8527076,85.4803691 60.772689,84.8665405 C60.7838969,84.7784796 60.7917163,84.6891199 60.7917163,84.5982016 L60.7917163,84.487541 L66.12794,87.9964687 Z M53.2548509,101.550832 L51.5900992,105.969463 L45.8837569,105.969463 L45.8837569,105.969723 L44.0104877,101.513426 L48.6069955,98.1419146 L53.2548509,101.550832 Z M40.9452803,84.9522635 C40.9648288,84.8369271 40.9776005,84.718993 40.9776005,84.597682 L40.9776005,80.3769937 C40.9776005,80.3759546 40.9776005,80.3749155 40.9776005,80.3738765 L40.9776005,77.4216286 C42.7721543,77.8912867 44.6540248,78.1432603 46.5945409,78.1432603 L50.9382213,78.1432603 C52.8784767,78.1432603 54.7600866,77.8912867 56.5546405,77.4218884 L56.5546405,84.2870011 L48.6666837,92.4473103 L40.9452803,84.9522635 Z M77.8964076,49.051215 C77.896147,51.9135836 75.8125358,54.295384 73.0786106,54.7819269 L73.0786106,43.3197239 C75.8125358,43.8060071 77.8964076,46.1883269 77.8964076,49.051215 Z M24.4525878,54.7819269 C21.7186626,54.295384 19.6347907,51.9138434 19.6347907,49.051215 C19.6347907,46.1880671 21.7184019,43.8060071 24.4525878,43.3194641 L24.4525878,54.7819269 Z M26.579727,36.9705077 C26.5765993,36.9705077 26.5734715,36.9705077 26.5706044,36.9705077 C26.4976233,36.9705077 26.4256847,36.9741444 26.3545281,36.9814179 C26.3321125,36.9837558 26.3107395,36.9884316 26.2883238,36.9915488 C26.2401042,36.998043 26.1916238,37.0040176 26.1444467,37.013629 C26.1139511,37.0198634 26.0847586,37.029215 26.0547842,37.0364884 C26.0169904,37.0460998 25.9786753,37.0538928 25.9416635,37.0655823 C25.9072581,37.0762327 25.8741559,37.0900004 25.8405325,37.1022094 C25.8095155,37.1133793 25.7777166,37.1232505 25.7474815,37.135979 C25.7089058,37.1523443 25.6721546,37.1715671 25.6343608,37.1900105 C25.6106419,37.2019598 25.5858805,37.2120907 25.5624222,37.2245595 C25.5259317,37.2443017 25.4912656,37.2671612 25.4558177,37.2887218 C25.4331414,37.3027492 25.4096832,37.315218 25.3877888,37.3300247 C25.3541654,37.3526244 25.3228878,37.3778218 25.2905675,37.4019801 C25.2689338,37.4186052 25.2459969,37.4336716 25.2246239,37.451076 C25.1954314,37.4747147 25.1688454,37.5009512 25.1412169,37.5261485 C25.1188012,37.5464103 25.095343,37.5658928 25.07397,37.5869339 C25.0484266,37.6123911 25.0249684,37.6399263 25.0009888,37.6666823 C24.9798764,37.6900613 24.9574608,37.7124012 24.937391,37.7365595 C24.9149754,37.7633155 24.8954269,37.7921496 24.8743145,37.8199446 C24.8545053,37.8464408 24.8336535,37.8716382 24.814887,37.8991734 C24.7966417,37.9261892 24.7807422,37.9550233 24.7635395,37.9828183 C24.7452942,38.0129512 24.7254851,38.0420451 24.708543,38.0729573 C24.6936862,38.1004926 24.6811751,38.1295864 24.6673608,38.1576412 C24.6512007,38.1908914 24.6337374,38.2233622 24.6194018,38.2573916 C24.607412,38.2849269 24.5985501,38.3140208 24.5881242,38.3420756 C24.5745705,38.3784429 24.5599743,38.4137711 24.5479846,38.4509178 C24.5388619,38.4792323 24.5326064,38.5091055 24.5250476,38.5381994 C24.5148824,38.5761253 24.5036746,38.6140512 24.4953339,38.6527565 C24.4888177,38.6834089 24.4856899,38.7153602 24.4807377,38.7462724 C24.4744821,38.7844581 24.467184,38.8226438 24.4630137,38.8616088 C24.4596253,38.8943394 24.4593646,38.9278493 24.4575401,38.9608397 C24.4557156,38.9909726 24.4531091,39.0208458 24.4523271,39.0514982 C23.7470167,39.1229341 23.0638612,39.2686632 22.4085949,39.4780351 L22.4085949,29.4201305 C22.4085949,15.5270314 33.7496016,4.2235458 47.6895185,4.2235458 L49.9746098,4.2235458 C63.9158299,4.2235458 75.2573579,15.5270314 75.2573579,29.4209098 L75.2573579,39.5253126 C74.5603881,39.2912629 73.8310981,39.1289087 73.0760041,39.0522775 C73.0760041,39.0434455 73.0749615,39.0348732 73.0747009,39.0260411 C73.0736583,38.9795429 73.0718337,38.9330447 73.0676634,38.8873257 C73.0650569,38.8595307 73.0606259,38.8322552 73.0569769,38.8044602 C73.0515033,38.7641963 73.0462903,38.7239325 73.0387316,38.6839285 C73.0322154,38.6504186 73.0241354,38.617688 73.0157947,38.5846976 C73.0079753,38.551967 73.0001559,38.5194962 72.9907726,38.4872851 C72.9798254,38.4498787 72.966793,38.4132516 72.9537607,38.3766245 C72.9441168,38.3498686 72.9349941,38.3231126 72.9243076,38.2968762 C72.9086688,38.2584307 72.8912055,38.2205048 72.8734815,38.1830984 C72.8622736,38.1594596 72.8513265,38.1358208 72.8393367,38.1127016 C72.8200489,38.0760745 72.7994577,38.0407463 72.7783453,38.0051582 C72.7645311,37.9817792 72.7507168,37.9581405 72.7358599,37.935281 C72.7147475,37.9028102 72.6923319,37.8716382 72.6693949,37.8404662 C72.651671,37.8160481 72.6336863,37.7913703 72.6149198,37.7677315 C72.5927648,37.740456 72.5700885,37.7142196 72.5468909,37.6877234 C72.5242146,37.6620065 72.5020596,37.6368091 72.4783408,37.6123911 C72.4561858,37.5895316 72.4332489,37.5682307 72.4103119,37.5464103 C72.3834653,37.5209532 72.356358,37.4960156 72.3282082,37.4721171 C72.3050106,37.4526346 72.2810311,37.4341911 72.2570516,37.415488 C72.2270772,37.3923687 72.1973634,37.3692495 72.1663465,37.3479486 C72.1402818,37.3300247 72.1134351,37.3133997 72.0865885,37.2965148 C72.0560928,37.2772921 72.0255971,37.2583291 71.9940589,37.2404052 C71.9630419,37.2230009 71.930461,37.2071551 71.8986621,37.1913093 C71.8697303,37.1772819 71.8415804,37.1624752 71.8118667,37.1497467 C71.7738122,37.1328618 71.7344546,37.1185747 71.6948362,37.103768 C71.6692928,37.0944164 71.6445314,37.0842855 71.6184667,37.075973 C71.574678,37.0616858 71.5301074,37.0499963 71.4850155,37.0385666 C71.4659883,37.0338908 71.447743,37.0271368 71.4284551,37.0227208 C63.1367563,35.1430494 60.6348068,24.7339404 60.6113486,24.6331509 C60.4275926,23.8239778 59.785098,23.1969012 58.9695339,23.0309103 C58.1539698,22.8638803 57.3162507,23.1893679 56.828059,23.8621635 C47.4043708,36.8455599 26.9162222,36.9705077 26.5815516,36.9705077 C26.5812909,36.9705077 26.5802483,36.9705077 26.579727,36.9705077 Z M28.6901849,56.0773831 L28.6901849,41.1202798 C34.1072092,40.7885578 48.5001303,38.9920117 57.7580471,29.333888 C59.3550306,33.0781644 62.6621183,38.5457326 68.8410135,40.6703639 L68.8410135,56.0773831 C68.8410135,65.9160446 60.8097009,73.9204938 50.9382213,73.9204938 L46.5945409,73.9204938 C36.7217581,73.9202341 28.6901849,65.9157848 28.6901849,56.0773831 Z M36.7400034,84.2784288 L36.7400034,84.5979418 C36.7400034,84.8216009 36.775712,85.0369474 36.8400918,85.2390459 C36.6073341,85.9754843 36.7874411,86.8119329 37.3801521,87.3875757 L45.4461307,95.2174618 L37.4679901,101.069485 L31.0863117,87.9967285 L36.7400034,84.2784288 Z M40.224331,121.075932 L36.0690983,106.292093 C36.1022005,106.301964 36.13426,106.314173 36.1678835,106.322226 C36.3357401,106.363269 36.5056818,106.383531 36.675363,106.383531 C37.1228937,106.383531 37.5639082,106.242218 37.9311597,105.97258 L40.4990528,104.089272 L42.2860479,108.340872 L40.224331,121.075932 Z M43.2699899,128.776714 L46.2783763,110.193009 L51.2533434,110.193009 L54.2614691,128.776714 L43.2699899,128.776714 Z M55.238895,108.29879 L56.8012124,104.152395 L59.2830921,105.97284 C59.6506042,106.242478 60.0913581,106.383791 60.5388888,106.383791 C60.7083093,106.383791 60.8785117,106.363529 61.0463683,106.322486 C61.2223049,106.279105 61.3888583,106.211825 61.5449858,106.127661 L57.3206817,121.156979 L55.238895,108.29879 Z M92.7624029,128.776714 L92.7624029,128.776714 L80.6165186,128.776714 L80.6165186,113.103694 C80.6165186,111.937342 79.6682852,110.992051 78.49772,110.992051 C77.3274155,110.992051 76.3789215,111.937082 76.3789215,113.103694 L76.3789215,128.776714 L59.5791869,128.776714 L70.4406034,90.13227 L80.0363186,94.1176098 C80.0775008,94.1347544 80.1270237,94.1534576 80.1692485,94.1677448 C80.1833234,94.1729401 81.5999393,94.6651979 83.4533993,95.8635014 C83.4536599,95.8637612 83.4539206,95.8637612 83.4541812,95.864021 C87.7006403,98.6113129 92.7624029,103.966402 92.7624029,113.877279 L92.7624029,128.776714 L92.7624029,128.776714 Z" id="Shape"></path>
                    <path d="M51.8598743,58 C53.0419587,58 54,57.0738718 54,55.9305948 C54,54.7875723 53.042222,53.8611895 51.8598743,53.8611895 L50.2802514,53.8611895 L50.2802514,49.0694052 C50.2802514,47.9266374 49.3224734,47 48.1401257,47 C46.9580413,47 46,47.9266374 46,49.0694052 L46,55.9305948 C46,57.0736172 46.957778,58 48.1401257,58 L51.8598743,58 Z" id="Shape"></path>
                </g>
                <g id="Group-8" transform="translate(85.000000, 0.000000)">
                    <g id="Group-6">
                        <g id="eye" transform="translate(19.000000, 24.000000)">
                            <path d="M27.4998667,13 C25.5700959,13 24,14.5699627 24,16.5 C24,18.4299041 25.5699627,20 27.4998667,20 C29.4297708,20 31,18.4300373 31,16.5 C31,14.5699627 29.4299041,13 27.4998667,13 Z" id="Shape"></path>
                            <path d="M16,5 C13.7754181,5.65086416 11.7194513,6.49064002 9.89921282,7.50610928 C5.45018773,9.98784729 3,13.1818595 3,16.5002065 C3,19.8182781 5.45018773,23.0122904 9.89921282,25.4938907 C11.7194513,26.50936 13.7752795,27.3492735 15.9997227,28 C13.0668466,25.0353805 11.2543732,20.9743297 11.2543732,16.5000688 C11.2543732,12.025808 13.0668466,7.96475716 16,5 Z" id="Shape"></path>
                            <path d="M46.1007872,7.50610928 C44.2805487,6.49064002 42.2245819,5.65072647 40,5 C42.9330148,7.96461946 44.7454881,12.0256703 44.7454881,16.5000688 C44.7454881,20.974192 42.9332921,25.0352428 40.0002773,28 C42.2248592,27.3491358 44.2806873,26.50936 46.1007872,25.4938907 C50.5498123,23.0122904 53,19.8181405 53,16.5002065 C53,13.1818595 50.5498123,9.98784729 46.1007872,7.50610928 Z" id="Shape"></path>
                            <path d="M47.4390727,4.56659119 C42.3839016,1.72098113 35.7485236,0.113459119 28.6888206,0.0153584906 C28.4604334,0.00594968553 28.2310797,0 28.0003452,0 C27.7697488,0 27.5406712,0.00594968553 27.3124222,0.0153584906 C20.2524429,0.113459119 13.6166507,1.72084277 8.56134156,4.56659119 C3.04028287,7.67440252 0,11.9123774 0,16.5 C0,21.0873459 3.04028287,25.3253208 8.56120348,28.4331321 C13.6148556,31.2780503 20.247472,32.8851572 27.3045515,32.9843648 C27.5354241,32.9937736 27.7671252,33 28.0002071,33 C28.2334271,33 28.4654044,32.9937736 28.6964151,32.9840881 C35.7533565,32.8848805 42.3855586,31.2777736 47.4389346,28.4331321 C52.9597171,25.3253208 56,21.0873459 56,16.5 C56.0001381,11.9123774 52.9597171,7.67440252 47.4390727,4.56659119 Z M10.1842158,25.5377107 C5.75386444,23.0439623 3.3139608,19.8341761 3.3139608,16.5 C3.3139608,13.1654088 5.75386444,9.95576101 10.1842158,7.46201258 C11.9968143,6.44157233 14.0441516,5.59754717 16.2593963,4.94363522 C13.3385541,7.9227673 11.5336882,12.0036981 11.5336882,16.5 C11.5336882,20.9960252 13.3384161,25.076956 16.2591202,28.0562264 C14.0440135,27.4021761 11.9968143,26.5581509 10.1842158,25.5377107 Z M28.6192274,29.6640252 C28.4132095,29.6667925 28.2069154,29.6683145 28.000069,29.6683145 C27.7934988,29.6683145 27.5873428,29.6666541 27.3816011,29.6640252 C20.4153793,29.3391447 14.8477871,23.558956 14.8477871,16.4998616 C14.8477871,9.43924528 20.4177267,3.65808805 27.3858816,3.33542138 C27.5902426,3.33265409 27.7948796,3.33113208 28.000069,3.33113208 C28.2053965,3.33113208 28.4104479,3.33279245 28.6149469,3.33542138 C35.5826875,3.65808805 41.152351,9.43910692 41.152351,16.4998616 C41.1522129,23.558956 35.5848968,29.339283 28.6192274,29.6640252 Z M45.8159223,25.5377107 C44.0034619,26.5581509 41.9562626,27.4021761 39.7410179,28.0560881 C42.6615839,25.076956 44.4663118,20.9960252 44.4663118,16.4998616 C44.4663118,12.0035597 42.6615839,7.92262893 39.7407417,4.94349686 C41.9559865,5.59754717 44.0033238,6.44143396 45.8159223,7.46187421 C50.2462736,9.95562264 52.6861773,13.1654088 52.6861773,16.4998616 C52.6861773,19.8341761 50.2462736,23.0439623 45.8159223,25.5377107 Z" id="Shape" fill="#333333" fill-rule="nonzero"></path>
                            <path d="M27.9998607,10 C24.1401401,10 21,13.1402793 21,17 C21,20.8597207 24.1401401,24 27.9998607,24 C31.8597207,24 35,20.8597207 35,17 C35,13.1402793 31.8597207,10 27.9998607,10 Z M27.9998607,20.6575084 C25.9831689,20.6575084 24.3423524,19.0168311 24.3423524,16.9998607 C24.3423524,14.9830296 25.9830296,13.3422131 27.9998607,13.3422131 C30.0166919,13.3422131 31.6576476,14.9828903 31.6576476,16.9998607 C31.6576476,19.0168311 30.0168311,20.6575084 27.9998607,20.6575084 Z" id="Shape" fill="#333333" fill-rule="nonzero"></path>
                        </g>
                        <circle id="Oval-4" stroke="#333333" stroke-width="5" cx="47" cy="40" r="40"></circle>
                        <polyline id="Path-3" stroke="#333333" stroke-width="5" points="9.5 56 0 74 19.5 69.5"></polyline>
                    </g>
                </g>
            </g>
        </g>
    </g>
</svg>